<svg width="178" height="32" viewBox="0 0 178 32" fill="none" xmlns="http://www.w3.org/2000/svg">
<path d="M65.2353 8.20792C65.2353 9.59599 64.2229 10.6827 62.6088 10.6827C61.0711 10.6827 60.0566 9.59496 60.0566 8.20792C60.0566 6.78166 61.1072 5.69287 62.645 5.69287C64.2219 5.6939 65.1982 6.78166 65.2353 8.20792ZM60.3188 13.3113L64.9711 13.3113L64.9711 31.5843L60.3188 31.5843L60.3188 13.3113Z" fill="white"/>
<path d="M69.9261 19.2016C69.9261 16.7248 69.8889 14.961 69.7754 13.3108L73.791 13.3108L73.9417 16.8001L74.0913 16.8001C74.9923 14.2107 77.1306 12.897 79.0822 12.897C79.5342 12.897 79.7953 12.9352 80.171 13.0084L80.171 17.3625C79.7964 17.2882 79.3825 17.2129 78.8201 17.2129C76.6064 17.2129 75.1048 18.6381 74.692 20.7032C74.6177 21.116 74.5413 21.6031 74.5413 22.1274L74.5413 31.5849L69.925 31.5849L69.925 19.2016L69.9261 19.2016Z" fill="white"/>
<path d="M88.2012 8.20792C88.2012 9.59599 87.1877 10.6827 85.5736 10.6827C84.0369 10.6827 83.0225 9.59496 83.0225 8.20792C83.0225 6.78166 84.0731 5.69287 85.6118 5.69287C87.1867 5.6939 88.163 6.78166 88.2012 8.20792ZM83.2846 13.3113L87.937 13.3113L87.937 31.5843L83.2846 31.5843L83.2846 13.3113Z" fill="white"/>
<path d="M109.741 4.94287L109.741 26.4451C109.741 28.3203 109.815 30.3472 109.89 31.5856L105.762 31.5856L105.573 28.696L105.499 28.696C104.41 30.7229 102.197 31.9985 99.5349 31.9985C95.1797 31.9985 91.7297 28.2821 91.7297 22.6535C91.6915 16.5367 95.5182 12.8967 99.9095 12.8967C102.424 12.8967 104.226 13.9483 105.049 15.2982L105.124 15.2982L105.124 4.94287L109.741 4.94287ZM105.123 20.9289C105.123 20.5523 105.086 20.1023 105.013 19.7287C104.599 17.9268 103.136 16.4623 101.035 16.4623C98.0715 16.4623 96.4181 19.0899 96.4181 22.5038C96.4181 25.8424 98.0714 28.2832 100.997 28.2832C102.872 28.2832 104.525 27.0096 104.974 25.0189C105.087 24.6071 105.124 24.1551 105.124 23.6679L105.124 20.9289L105.123 20.9289Z" fill="white"/>
<path d="M119.609 8.20792C119.609 9.59599 118.595 10.6827 116.981 10.6827C115.443 10.6827 114.429 9.59496 114.429 8.20792C114.429 6.78166 115.481 5.69287 117.018 5.69287C118.595 5.6939 119.572 6.78166 119.609 8.20792ZM114.693 13.3113L119.349 13.3113L119.349 31.5843L114.693 31.5843L114.693 13.3113Z" fill="white"/>
<path d="M140.66 26.1071C140.66 28.2826 140.734 30.0846 140.811 31.5851L136.757 31.5851L136.531 28.81L136.456 28.81C135.668 30.1217 133.867 32 130.602 32C127.264 32 124.222 30.0113 124.222 24.0441L124.222 13.311L128.839 13.311L128.839 23.2546C128.839 26.2939 129.814 28.2445 132.255 28.2445C134.092 28.2445 135.292 26.9327 135.784 25.7697C135.931 25.3568 136.044 24.8687 136.044 24.3434L136.044 13.311L140.66 13.311L140.66 26.1071Z" fill="white"/>
<path d="M145.651 18.7517C145.651 16.6505 145.612 14.8867 145.499 13.3118L149.478 13.3118L149.667 16.0116L149.777 16.0116C150.679 14.5864 152.329 12.898 155.408 12.898C157.808 12.898 159.687 14.2489 160.473 16.2738L160.549 16.2738C161.186 15.2613 161.935 14.51 162.799 13.9847C163.811 13.2726 164.976 12.897 166.476 12.897C169.513 12.897 172.593 14.961 172.593 20.8147L172.593 31.5839L168.089 31.5839L168.089 21.4907C168.089 18.4513 167.038 16.6505 164.824 16.6505C163.25 16.6505 162.086 17.7754 161.599 19.0891C161.485 19.5391 161.373 20.1015 161.373 20.6279L161.373 31.5839L156.869 31.5839L156.869 21.0025C156.869 18.4513 155.859 16.6505 153.717 16.6505C151.993 16.6505 150.829 18.0014 150.415 19.277C150.227 19.729 150.153 20.2522 150.153 20.7786L150.153 31.5849L145.651 31.5849L145.651 18.7517Z" fill="white"/>
<path d="M2.61515 6.36459C4.05896 6.36459 5.23134 5.1922 5.23134 3.74943C5.23134 2.30459 4.05896 1.13428 2.61515 1.13428C1.17032 1.13428 6.2877e-09 2.30356 1.40627e-08 3.74943C2.1821e-08 5.1922 1.17032 6.36459 2.61515 6.36459Z" fill="#F2B207"/>
<path d="M13.3752 5.23134C14.8201 5.23134 15.9914 4.06102 15.9914 2.61515C15.9914 1.17135 14.8201 -1.71662e-07 13.3752 -1.10588e-07C11.9324 -4.96008e-08 10.759 1.17135 10.759 2.61515C10.759 4.06205 11.9324 5.23134 13.3752 5.23134Z" fill="#F2B207"/>
<path d="M21.1205 12.6494C22.5663 12.6494 23.7367 11.475 23.7367 10.0312C23.7367 8.58737 22.5663 7.41602 21.1205 7.41602C19.6777 7.41602 18.5063 8.58737 18.5063 10.0312C18.5063 11.475 19.6767 12.6494 21.1205 12.6494Z" fill="#F2B207"/>
<path d="M30.9959 18.3266C32.4408 18.3266 33.6142 17.1522 33.6142 15.7115C33.6142 14.2646 32.4408 13.0942 30.9959 13.0942C29.5511 13.0942 28.3798 14.2646 28.3798 15.7115C28.3798 17.1522 29.5511 18.3266 30.9959 18.3266Z" fill="#F2B207"/>
<path d="M30.9959 27.7191C32.4408 27.7191 33.6142 26.5519 33.6142 25.105C33.6142 23.6591 32.4408 22.4878 30.9959 22.4878C29.5511 22.4878 28.3798 23.6591 28.3798 25.105C28.3798 26.5529 29.5511 27.7191 30.9959 27.7191Z" fill="#F2B207"/>
<path d="M41.9004 31.6137C43.3442 31.6137 44.5155 30.4433 44.5155 28.9975C44.5155 27.5537 43.3442 26.3823 41.9004 26.3823C40.4566 26.3823 39.2842 27.5537 39.2842 28.9975C39.2831 30.4433 40.4555 31.6137 41.9004 31.6137Z" fill="#F2B207"/>
<path d="M47.2533 22.5608C48.6982 22.5608 49.8685 21.3884 49.8685 19.9446C49.8685 18.5008 48.6982 17.3315 47.2533 17.3315C45.8095 17.3315 44.6382 18.5008 44.6382 19.9446C44.6382 21.3884 45.8095 22.5608 47.2533 22.5608Z" fill="#F2B207"/>
<path d="M175.271 13.1685C176.51 13.1685 177.509 14.1654 177.509 15.4193C177.509 16.6877 176.51 17.6846 175.257 17.6846C173.988 17.6846 172.992 16.6877 172.992 15.4193C172.992 14.1654 173.989 13.1685 175.257 13.1685L175.271 13.1685ZM175.227 13.6814C174.302 13.6814 173.604 14.4647 173.604 15.4193C173.604 16.4018 174.302 17.1717 175.258 17.1717C176.198 17.1851 176.897 16.4018 176.897 15.4193C176.897 14.4647 176.198 13.6814 175.243 13.6814L175.227 13.6814ZM174.93 16.5432L174.401 16.5432L174.401 14.378C174.558 14.3501 174.843 14.3068 175.227 14.3068C175.641 14.3068 175.84 14.378 175.999 14.4771C176.126 14.5627 176.211 14.734 176.211 14.9477C176.211 15.1757 176.012 15.3605 175.756 15.4461L175.756 15.474C175.968 15.5452 176.083 15.7165 176.156 16.0148C176.225 16.3285 176.268 16.4575 176.311 16.5421L175.728 16.5421C175.658 16.4575 175.614 16.2718 175.559 16.0457C175.515 15.8156 175.401 15.7176 175.158 15.7176L174.93 15.7176L174.93 16.5432ZM174.958 15.3037L175.157 15.3037C175.413 15.3037 175.612 15.2181 175.612 15.0199C175.612 14.8331 175.469 14.7351 175.198 14.7351C175.087 14.7351 174.999 14.7495 174.958 14.7495L174.958 15.3037Z" fill="white"/>
</svg>
